# xmcd
#
# Track frame offsets: 
#        150
#        29670
#        47210
#        70497
#        94565
#        114482
#        137742
#        157912
#        182205
#        214445
#
# Disc length: 3155 seconds
#
# Revision: 3
# Processed by: cddbd v1.5.2PL0 Copyright (c) Steve Scherf et al.
# Submitted via: ExactAudioCopy v1.0b3
#
DISCID=930c510a
DTITLE=Kelly Joe Phelps - Slingshot Professionals
DYEAR=2003
DGENRE=Blues
TTITLE0=Jericho
TTITLE1=Window Grin
TTITLE2=Slingshot Professionals
TTITLE3=Not So Far To Go
TTITLE4=It's James Now
TTITLE5=Waiting For Marty
TTITLE6=Knock Louder
TTITLE7=Cardboard Box Of Batteries
TTITLE8=Circle Wars
TTITLE9=Rusting Gate
EXTD=
EXTT0=
EXTT1=
EXTT2=
EXTT3=
EXTT4=
EXTT5=
EXTT6=
EXTT7=
EXTT8=
EXTT9=
PLAYORDER=
